<svg width="21" height="20" viewBox="0 0 21 20" fill="none" xmlns="http://www.w3.org/2000/svg">
<path d="M10.8155 3.75C9.51359 3.75148 8.26537 4.26933 7.34475 5.18996C6.42412 6.11059 5.90626 7.3588 5.90479 8.66076C5.90479 12.8628 10.3691 16.0364 10.5594 16.1692C10.6345 16.2218 10.7239 16.25 10.8155 16.25C10.9072 16.25 10.9966 16.2218 11.0717 16.1692C11.262 16.0364 15.7263 12.8628 15.7263 8.66076C15.7248 7.3588 15.207 6.11059 14.2864 5.18996C13.3657 4.26933 12.1175 3.75148 10.8155 3.75ZM10.8155 6.87503C11.1687 6.87503 11.514 6.97976 11.8076 7.17598C12.1013 7.3722 12.3302 7.65109 12.4654 7.97739C12.6005 8.30369 12.6359 8.66274 12.567 9.00914C12.4981 9.35554 12.328 9.67373 12.0783 9.92347C11.8285 10.1732 11.5103 10.3433 11.1639 10.4122C10.8175 10.4811 10.4585 10.4457 10.1322 10.3106C9.80588 10.1754 9.52699 9.94653 9.33077 9.65286C9.13455 9.3592 9.02982 9.01395 9.02982 8.66076C9.02982 8.18716 9.21796 7.73295 9.55285 7.39806C9.88774 7.06317 10.3419 6.87503 10.8155 6.87503Z" fill="#1C124A"/>
<path d="M0.904785 0H8.04764V2.85714H3.76193V7.14286H0.904785V0ZM13.7619 0H20.9048V7.14286H18.0476V2.85714H13.7619V0ZM18.0476 12.8571H20.9048V20H13.7619V17.1429H18.0476V12.8571ZM8.04764 17.1429V20H0.904785V12.8571H3.76193V17.1429H8.04764Z" fill="#1C124A"/>
</svg>
