<svg width="522" height="127" viewBox="0 0 522 127" fill="none" xmlns="http://www.w3.org/2000/svg">
<path d="M201.954 63.225H195.96C195.848 63.2321 195.735 63.2151 195.63 63.1752C195.524 63.1354 195.428 63.0736 195.349 62.9939C195.269 62.9142 195.207 62.8184 195.167 62.713C195.128 62.6076 195.111 62.4949 195.118 62.3824V21.2643L178.218 48.7325C177.977 49.1418 177.712 49.5751 177.207 49.5751H172.392C171.887 49.5751 171.622 49.1659 171.381 48.7325L154.53 21.2643V62.3824C154.537 62.4949 154.52 62.6076 154.48 62.713C154.44 62.8184 154.378 62.9142 154.299 62.9939C154.219 63.0736 154.123 63.1354 154.018 63.1752C153.912 63.2151 153.8 63.2321 153.687 63.225H147.693C147.58 63.2321 147.468 63.2151 147.362 63.1752C147.257 63.1354 147.161 63.0736 147.081 62.9939C147.002 62.9142 146.94 62.8184 146.9 62.713C146.86 62.6076 146.843 62.4949 146.85 62.3824V6.69961C146.843 6.58713 146.86 6.47443 146.9 6.36901C146.94 6.26359 147.002 6.16785 147.081 6.08815C147.161 6.00846 147.257 5.94664 147.362 5.90679C147.468 5.86694 147.58 5.84997 147.693 5.85703H153.663C154.169 5.85703 154.265 6.26628 154.506 6.69961L174.824 39.8012L195.069 6.69961C195.31 6.26628 195.406 5.85703 195.912 5.85703H201.906C202.019 5.84997 202.131 5.86694 202.237 5.90679C202.342 5.94664 202.438 6.00846 202.518 6.08815C202.597 6.16785 202.659 6.26359 202.699 6.36901C202.739 6.47443 202.756 6.58713 202.749 6.69961V62.3824C202.755 62.4907 202.74 62.5992 202.703 62.7012C202.666 62.8032 202.608 62.8966 202.534 62.9756C202.46 63.0545 202.37 63.1174 202.27 63.1603C202.17 63.2032 202.063 63.2252 201.954 63.225Z" fill="white"/>
<path d="M255.569 63.225H215.631C215.519 63.2321 215.406 63.2151 215.301 63.1752C215.195 63.1354 215.1 63.0736 215.02 62.9939C214.94 62.9142 214.878 62.8184 214.839 62.713C214.799 62.6076 214.782 62.4949 214.789 62.3824V6.69961C214.782 6.58713 214.799 6.47443 214.839 6.36901C214.878 6.26359 214.94 6.16785 215.02 6.08815C215.1 6.00846 215.195 5.94664 215.301 5.90679C215.406 5.86694 215.519 5.84997 215.631 5.85703H255.569C255.682 5.84997 255.795 5.86694 255.9 5.90679C256.005 5.94664 256.101 6.00846 256.181 6.08815C256.26 6.16785 256.322 6.26359 256.362 6.36901C256.402 6.47443 256.419 6.58713 256.412 6.69961V12.0922C256.419 12.2046 256.402 12.3173 256.362 12.4228C256.322 12.5282 256.26 12.6239 256.181 12.7036C256.101 12.7833 256.005 12.8451 255.9 12.885C255.795 12.9248 255.682 12.9418 255.569 12.9347H222.709V30.8938H251.116C251.228 30.8868 251.341 30.9037 251.446 30.9436C251.552 30.9834 251.647 31.0453 251.727 31.125C251.807 31.2046 251.869 31.3004 251.909 31.4058C251.948 31.5112 251.965 31.6239 251.958 31.7364V37.153C251.965 37.2655 251.948 37.3782 251.909 37.4836C251.869 37.589 251.807 37.6848 251.727 37.7645C251.647 37.8442 251.552 37.906 251.446 37.9459C251.341 37.9857 251.228 38.0027 251.116 37.9956H222.709V56.1954H255.569C255.682 56.1884 255.795 56.2054 255.9 56.2452C256.005 56.2851 256.101 56.3469 256.181 56.4266C256.26 56.5063 256.322 56.602 256.362 56.7074C256.402 56.8128 256.419 56.9255 256.412 57.038V62.4306C256.412 62.5391 256.39 62.6465 256.347 62.7461C256.304 62.8458 256.241 62.9356 256.162 63.01C256.084 63.0845 255.99 63.142 255.888 63.1789C255.786 63.2159 255.678 63.2316 255.569 63.225Z" fill="white"/>
<path d="M297.436 41.3203L311.881 62.1442C312.218 62.6498 312.218 63.2516 311.543 63.2516H303.864C303.576 63.2383 303.296 63.1545 303.049 63.0076C302.801 62.8606 302.593 62.6551 302.444 62.409L288 41.5129H276.372V62.409C276.379 62.5215 276.362 62.6342 276.322 62.7396C276.282 62.8451 276.221 62.9408 276.141 63.0205C276.061 63.1002 275.966 63.162 275.86 63.2019C275.755 63.2417 275.642 63.2587 275.529 63.2516H269.294C269.182 63.2587 269.069 63.2417 268.964 63.2019C268.858 63.162 268.763 63.1002 268.683 63.0205C268.603 62.9408 268.541 62.8451 268.502 62.7396C268.462 62.6342 268.445 62.5215 268.452 62.409V6.70216C268.445 6.58967 268.462 6.47698 268.502 6.37156C268.541 6.26613 268.603 6.17039 268.683 6.0907C268.763 6.01101 268.858 5.94918 268.964 5.90933C269.069 5.86948 269.182 5.85252 269.294 5.85957H295.173C299.767 5.76095 304.22 7.44331 307.601 10.5544C310.982 13.6654 313.029 17.9639 313.312 22.5498C313.595 27.1357 312.093 31.6532 309.12 35.1565C306.148 38.6599 301.935 40.8773 297.364 41.3444L297.436 41.3203ZM305.116 23.6983C304.972 20.7502 303.685 17.9743 301.527 15.9604C299.369 13.9465 296.511 12.8533 293.561 12.9132H276.444V34.4112H293.585C296.536 34.471 299.394 33.3779 301.551 31.364C303.709 29.3501 304.996 26.5741 305.14 23.6261L305.116 23.6983Z" fill="white"/>
<path d="M380.44 63.225H374.446C374.333 63.2321 374.22 63.2151 374.115 63.1752C374.01 63.1354 373.914 63.0736 373.834 62.9939C373.754 62.9142 373.693 62.8184 373.653 62.713C373.613 62.6076 373.596 62.4949 373.603 62.3824V21.2643L356.752 48.7325C356.511 49.1418 356.246 49.5751 355.74 49.5751H350.926C350.42 49.5751 350.155 49.1659 349.915 48.7325L333.063 21.2643V62.3824C333.07 62.4949 333.053 62.6076 333.013 62.713C332.974 62.8184 332.912 62.9142 332.832 62.9939C332.752 63.0736 332.657 63.1354 332.551 63.1752C332.446 63.2151 332.333 63.2321 332.221 63.225H326.226C326.114 63.2321 326.001 63.2151 325.896 63.1752C325.79 63.1354 325.695 63.0736 325.615 62.9939C325.535 62.9142 325.473 62.8184 325.433 62.713C325.394 62.6076 325.377 62.4949 325.384 62.3824V6.69961C325.377 6.58713 325.394 6.47443 325.433 6.36901C325.473 6.26359 325.535 6.16785 325.615 6.08815C325.695 6.00846 325.79 5.94664 325.896 5.90679C326.001 5.86694 326.114 5.84997 326.226 5.85703H332.148C332.654 5.85703 332.75 6.26628 332.991 6.69961L353.309 39.8252L373.627 6.69961C373.892 6.26628 373.964 5.85703 374.47 5.85703H380.464C380.576 5.84997 380.689 5.86694 380.795 5.90679C380.9 5.94664 380.996 6.00846 381.075 6.08815C381.155 6.16785 381.217 6.26359 381.257 6.36901C381.297 6.47443 381.314 6.58713 381.307 6.69961V62.3824C381.314 62.4971 381.297 62.612 381.255 62.7192C381.214 62.8265 381.15 62.9235 381.068 63.0036C380.985 63.0837 380.886 63.145 380.778 63.1832C380.67 63.2214 380.554 63.2357 380.44 63.225Z" fill="white"/>
<path d="M437.522 63.9938H431.287C431.063 63.9938 430.849 63.905 430.691 63.747C430.533 63.589 430.444 63.3747 430.444 63.1512V44.5421H401.411V63.1753C401.418 63.2878 401.401 63.4005 401.362 63.5059C401.322 63.6113 401.26 63.7071 401.18 63.7868C401.1 63.8665 401.005 63.9283 400.899 63.9681C400.794 64.008 400.681 64.0249 400.569 64.0179H394.189C394.077 64.0249 393.964 64.008 393.859 63.9681C393.753 63.9283 393.657 63.8665 393.578 63.7868C393.498 63.7071 393.436 63.6113 393.396 63.5059C393.357 63.4005 393.34 63.2878 393.347 63.1753V30.8923C393.347 18.8553 400.352 5.85547 415.855 5.85547C431.359 5.85547 438.268 18.8313 438.268 30.8923V63.1512C438.274 63.2556 438.26 63.3602 438.226 63.4591C438.192 63.558 438.139 63.6492 438.07 63.7275C438 63.8058 437.916 63.8696 437.822 63.9153C437.728 63.961 437.626 63.9877 437.522 63.9938ZM430.3 30.6997C430.3 20.7572 424.979 13.511 415.855 13.511C406.732 13.511 401.411 20.7813 401.411 30.6997V37.4404H430.3V30.6997Z" fill="white"/>
<path d="M457.385 63.225H451.15C451.038 63.2321 450.925 63.2151 450.82 63.1752C450.714 63.1354 450.619 63.0736 450.539 62.9939C450.459 62.9142 450.397 62.8184 450.357 62.713C450.318 62.6076 450.301 62.4949 450.308 62.3824V6.69961C450.301 6.58713 450.318 6.47443 450.357 6.36901C450.397 6.26359 450.459 6.16785 450.539 6.08815C450.619 6.00846 450.714 5.94664 450.82 5.90679C450.925 5.86694 451.038 5.84997 451.15 5.85703H457.385C457.498 5.84997 457.61 5.86694 457.716 5.90679C457.821 5.94664 457.917 6.00846 457.997 6.08815C458.076 6.16785 458.138 6.26359 458.178 6.36901C458.218 6.47443 458.235 6.58713 458.228 6.69961V62.3824C458.235 62.4949 458.218 62.6076 458.178 62.713C458.138 62.8184 458.076 62.9142 457.997 62.9939C457.917 63.0736 457.821 63.1354 457.716 63.1752C457.61 63.2151 457.498 63.2321 457.385 63.225Z" fill="white"/>
<path d="M491.838 63.2258H471.11C470.998 63.2328 470.885 63.2159 470.78 63.176C470.674 63.1362 470.578 63.0743 470.499 62.9946C470.419 62.9149 470.357 62.8192 470.317 62.7138C470.278 62.6084 470.261 62.4957 470.268 62.3832V6.70036C470.261 6.58787 470.278 6.47518 470.317 6.36975C470.357 6.26433 470.419 6.16859 470.499 6.0889C470.578 6.0092 470.674 5.94738 470.78 5.90753C470.885 5.86768 470.998 5.85072 471.11 5.85777H491.838C499.549 5.76102 506.987 8.71919 512.525 14.0865C518.064 19.4538 521.254 26.7944 521.4 34.5057C521.378 38.3426 520.593 42.1368 519.089 45.6668C517.586 49.1968 515.394 52.3919 512.642 55.0655C509.89 57.7391 506.633 59.8377 503.061 61.2388C499.489 62.6399 495.673 63.3154 491.838 63.2258ZM491.838 13.417H478.188V55.6425H491.838C497.437 55.6425 502.807 53.4181 506.766 49.4587C510.726 45.4993 512.95 40.1292 512.95 34.5297C512.95 28.9303 510.726 23.5602 506.766 19.6007C502.807 15.6413 497.437 13.417 491.838 13.417Z" fill="white"/>
<path fill-rule="evenodd" clip-rule="evenodd" d="M447.712 75.2236H147.376V126.583H447.712V75.2236ZM176.535 110.167C177.748 108.048 178.354 105.413 178.354 102.26C178.354 99.2603 177.76 96.7457 176.573 94.7162C175.386 92.6739 173.714 91.1358 171.557 90.1019C169.4 89.0552 166.853 88.5319 163.917 88.5319H155.129V116.524H163.056C166.272 116.524 169.023 115.994 171.308 114.935C173.593 113.863 175.335 112.273 176.535 110.167ZM171.27 97.3201C171.882 98.6476 172.189 100.345 172.189 102.413C172.189 105.464 171.48 107.761 170.063 109.306C168.659 110.85 166.509 111.622 163.611 111.622H161.065V93.3951H164.224C165.96 93.3951 167.415 93.7142 168.589 94.3524C169.776 94.9906 170.67 95.9798 171.27 97.3201ZM204.751 109.861L206.781 116.524H213.176L203.258 88.417H196.001L186.122 116.524H192.517L194.546 109.861H204.751ZM201.305 98.3731L203.335 104.883H196.04L198.05 98.3731C198.139 98.0796 198.286 97.5881 198.491 96.8989C198.695 96.2096 198.905 95.482 199.122 94.7162C199.352 93.9376 199.531 93.2866 199.658 92.7632C199.786 93.2866 199.952 93.9056 200.156 94.6204C200.373 95.3225 200.584 96.0181 200.788 96.7074C201.005 97.3839 201.177 97.9391 201.305 98.3731ZM237.525 113.078C238.329 111.852 238.731 110.41 238.731 108.75C238.731 107.283 238.456 106.057 237.908 105.074C237.359 104.079 236.574 103.217 235.553 102.49C234.544 101.749 233.325 101.041 231.896 100.364C230.721 99.8027 229.738 99.3113 228.947 98.8901C228.168 98.4689 227.581 98.0349 227.186 97.5881C226.803 97.1286 226.611 96.567 226.611 95.9032C226.611 95.3416 226.745 94.8502 227.013 94.429C227.281 93.995 227.677 93.6631 228.2 93.4334C228.724 93.1908 229.356 93.0696 230.096 93.0696C231.155 93.0696 232.196 93.2164 233.217 93.51C234.238 93.7908 235.393 94.1928 236.682 94.7162L238.597 90.1019C237.155 89.4637 235.77 88.9786 234.442 88.6468C233.127 88.3021 231.742 88.1298 230.287 88.1298C228.347 88.1298 226.662 88.4489 225.233 89.0871C223.816 89.7126 222.725 90.6188 221.959 91.8059C221.193 92.993 220.81 94.4226 220.81 96.0947C220.81 97.3711 221.027 98.4689 221.461 99.3879C221.908 100.294 222.476 101.066 223.165 101.705C223.854 102.343 224.582 102.885 225.348 103.332C226.113 103.766 226.822 104.136 227.473 104.443C228.507 104.94 229.432 105.406 230.249 105.84C231.079 106.274 231.73 106.74 232.202 107.238C232.674 107.736 232.91 108.336 232.91 109.038C232.91 109.612 232.776 110.123 232.508 110.569C232.24 111.016 231.806 111.367 231.206 111.622C230.619 111.878 229.841 112.005 228.87 112.005C227.466 112.005 226.05 111.769 224.62 111.297C223.19 110.825 221.812 110.295 220.484 109.708V115.222C221.25 115.592 222.054 115.905 222.897 116.16C223.752 116.403 224.639 116.588 225.558 116.715C226.49 116.843 227.441 116.907 228.411 116.907C230.606 116.907 232.47 116.575 234.002 115.911C235.546 115.247 236.721 114.303 237.525 113.078ZM266.315 116.524H272.232V88.5319H266.315V99.5028H255.23V88.5319H249.294V116.524H255.23V104.443H266.315V116.524ZM293.517 88.5319H284.806V116.524H295.279C297.398 116.524 299.223 116.205 300.755 115.567C302.299 114.916 303.486 113.984 304.316 112.771C305.145 111.559 305.56 110.103 305.56 108.406C305.56 106.938 305.331 105.764 304.871 104.883C304.424 103.989 303.824 103.313 303.071 102.853C302.318 102.381 301.476 102.049 300.544 101.858V101.666C301.463 101.5 302.242 101.143 302.88 100.594C303.518 100.045 304.003 99.3432 304.335 98.488C304.68 97.6328 304.852 96.6755 304.852 95.6161C304.852 92.9866 303.895 91.1486 301.98 90.1019C300.065 89.0552 297.244 88.5319 293.517 88.5319ZM294.187 99.6177H290.741V93.3951H293.862C295.559 93.3951 296.798 93.6312 297.576 94.1035C298.368 94.563 298.763 95.3289 298.763 96.4011C298.763 97.4605 298.431 98.2646 297.768 98.8135C297.104 99.3496 295.91 99.6177 294.187 99.6177ZM290.741 111.622V104.328H294.417C295.681 104.328 296.67 104.474 297.385 104.768C298.112 105.062 298.629 105.47 298.936 105.993C299.242 106.517 299.395 107.123 299.395 107.812C299.395 108.974 299.044 109.899 298.342 110.589C297.64 111.278 296.396 111.622 294.609 111.622H290.741ZM341.244 108.387C341.78 106.612 342.048 104.647 342.048 102.49C342.048 99.5794 341.569 97.0457 340.612 94.8885C339.667 92.7313 338.212 91.0592 336.247 89.8721C334.294 88.6851 331.798 88.0915 328.76 88.0915C325.71 88.0915 323.195 88.6851 321.217 89.8721C319.238 91.0592 317.77 92.7313 316.813 94.8885C315.868 97.0329 315.396 99.5538 315.396 102.451C315.396 104.621 315.664 106.593 316.2 108.368C316.736 110.142 317.547 111.667 318.632 112.944C319.73 114.22 321.115 115.203 322.787 115.892C324.459 116.569 326.437 116.907 328.722 116.907C331.007 116.907 332.985 116.569 334.657 115.892C336.33 115.203 337.708 114.22 338.793 112.944C339.891 111.667 340.708 110.148 341.244 108.387ZM322.346 107.544C321.861 106.127 321.619 104.443 321.619 102.49C321.619 100.524 321.861 98.839 322.346 97.435C322.844 96.0181 323.616 94.9332 324.663 94.1801C325.722 93.4142 327.088 93.0313 328.76 93.0313C331.275 93.0313 333.081 93.8737 334.179 95.5586C335.276 97.2435 335.825 99.5538 335.825 102.49C335.825 104.443 335.583 106.127 335.098 107.544C334.626 108.948 333.866 110.033 332.819 110.799C331.773 111.552 330.407 111.929 328.722 111.929C327.063 111.929 325.71 111.552 324.663 110.799C323.616 110.033 322.844 108.948 322.346 107.544ZM368.445 109.861L370.475 116.524H376.87L366.952 88.417H359.696L349.816 116.524H356.211L358.24 109.861H368.445ZM364.999 98.3731L367.029 104.883H359.734L361.744 98.3731C361.834 98.0796 361.98 97.5881 362.185 96.8989C362.389 96.2096 362.599 95.482 362.816 94.7162C363.046 93.9376 363.225 93.2866 363.353 92.7632C363.48 93.2866 363.646 93.9056 363.85 94.6204C364.067 95.3225 364.278 96.0181 364.482 96.7074C364.699 97.3839 364.871 97.9391 364.999 98.3731ZM400.338 89.4509C398.691 88.8382 396.598 88.5319 394.058 88.5319H385.902V116.524H391.837V105.783H394.996L401.678 116.524H408.265L400.032 104.328C400.951 103.906 401.806 103.364 402.597 102.7C403.389 102.036 404.027 101.226 404.512 100.269C404.997 99.3113 405.239 98.1944 405.239 96.918C405.239 95.0289 404.837 93.4653 404.033 92.2271C403.229 90.989 401.997 90.0636 400.338 89.4509ZM391.837 93.3951H393.637C395.551 93.3951 396.962 93.6759 397.868 94.2375C398.787 94.7991 399.247 95.7437 399.247 97.0712C399.247 98.3476 398.819 99.3177 397.964 99.9814C397.121 100.632 395.717 100.958 393.752 100.958H391.837V93.3951ZM438.683 110.167C439.895 108.048 440.502 105.413 440.502 102.26C440.502 99.2603 439.908 96.7457 438.721 94.7162C437.534 92.6739 435.862 91.1358 433.705 90.1019C431.548 89.0552 429.001 88.5319 426.065 88.5319H417.277V116.524H425.204C428.42 116.524 431.171 115.994 433.456 114.935C435.741 113.863 437.483 112.273 438.683 110.167ZM433.418 97.3201C434.03 98.6476 434.337 100.345 434.337 102.413C434.337 105.464 433.628 107.761 432.211 109.306C430.807 110.85 428.657 111.622 425.759 111.622H423.213V93.3951H426.372C428.108 93.3951 429.563 93.7142 430.737 94.3524C431.924 94.9906 432.818 95.9798 433.418 97.3201Z" fill="white"/>
<path d="M75.3861 82.1963C75.3861 82.1963 75.9398 79.9815 69.5843 76.7556C65.8048 74.8297 62.1215 75.2631 58.3179 74.1075C54.5143 72.952 44.933 68.9316 44.933 68.9316C43.1102 66.5573 41.1061 64.3278 38.9387 62.2632C36.9726 60.5074 34.8072 58.9884 32.487 57.7373C31.6139 58.5044 30.8594 59.3968 30.2482 60.3854C29.4587 61.5881 28.8352 62.8918 28.3945 64.2613C28.3945 64.2613 36.5555 74.589 45.246 77.3334C49.202 78.8396 53.3877 79.6539 57.6198 79.7408C58.4142 79.7408 63.8308 80.0778 67.1048 80.1501C69.9762 80.2582 72.7948 80.9547 75.3861 82.1963Z" fill="white"/>
<path d="M84.4857 96.6888C84.6225 94.487 84.0973 92.2947 82.9775 90.394C81.8577 88.4934 80.1947 86.9714 78.2025 86.0241C80.6098 94.498 73.123 100.468 73.123 100.468C69.3699 102.577 65.3077 104.08 61.0862 104.922C52.1549 107.281 41.683 97.9888 41.683 97.9888C39.0401 95.8825 36.6201 93.5109 34.4609 90.911C30.1277 85.9037 28.6351 83.4963 27.3833 79.163C26.3553 74.8296 26.0061 70.3629 26.3481 65.9224C26.4244 64.0873 26.8922 62.2897 27.7203 60.6502C29.1429 58.8228 30.3467 56.8353 31.3073 54.728C31.5962 53.2355 29.9351 53.5484 29.9351 53.5484C29.9351 53.5484 23.8926 57.0873 21.2205 52.2966C19.4631 49.1429 20.1853 46.2781 17.7058 45.4355C17.7058 45.4355 15.2984 55.3058 8.19672 57.1836C2.97276 58.5558 2.56351 52.754 2.56351 52.754C1.50508 56.548 0.700841 60.4084 0.156164 64.3094C-0.343503 70.8018 0.358339 77.3307 2.22649 83.5685C4.63384 92.3073 10.3874 100.011 16.6706 106.222C23.0268 112.986 31.3462 117.584 40.4552 119.366C48.8569 121.148 62.1214 119.102 68.7897 114.792C71.6934 112.813 74.2548 110.374 76.3729 107.57C82.9209 103.839 94.4039 107.041 94.4039 107.041C94.6447 100.854 84.4857 96.6888 84.4857 96.6888Z" fill="white"/>
<path d="M38.3852 14.4521C43.0555 9.08367 41.7074 7.22998 41.7074 7.22998C39.7551 9.35118 37.3868 11.0475 34.7501 12.2133C31.7169 13.5133 26.854 15.9206 26.1077 16.1614C22.2228 17.8427 18.656 20.1798 15.5635 23.0706C8.58222 28.8724 4.8749 41.5111 4.8749 41.5111L4.44158 43.1722C4.09774 45.1182 3.99264 47.0989 4.12862 49.0703C4.42849 51.1007 5.38376 52.9775 6.84893 54.4147C7.4267 55.2332 11.2303 52.8499 13.5895 49.2629C15.9487 45.6759 15.2024 43.5815 15.2024 43.5815L14.2154 41.8C14.6935 41.0225 15.1275 40.2188 15.5154 39.3926C16.7505 36.6672 17.7727 33.8501 18.5727 30.9668C18.5727 30.9668 25.9392 23.7446 29.0447 21.1447C32.1502 18.5447 35.5927 17.654 38.3852 14.4521Z" fill="white"/>
<path d="M108.68 47.5059L94.6931 23.2876L80.7305 47.5059H108.68Z" fill="white"/>
<path d="M80.8639 26.88C85.6313 21.7997 85.3776 13.8165 80.2974 9.04914C75.2171 4.28174 67.2341 4.5354 62.4667 9.61572C57.6994 14.696 57.9531 22.6792 63.0333 27.4466C68.1136 32.214 76.0966 31.9603 80.8639 26.88Z" fill="white"/>
<path d="M96.0979 84.49L111.821 69.0283L96.3592 53.3054L80.6365 68.7671L96.0979 84.49Z" fill="white"/>
<path d="M48.3757 37.5161L39.637 40.8383C39.8711 41.9901 39.8711 43.1772 39.637 44.329C42.7906 43.5105 48.5442 41.9216 51.6737 41.0309C54.7532 40.1954 57.956 39.9102 61.1346 40.1883C60.8111 38.6112 59.8763 37.2264 58.5347 36.3365C57.4266 35.9617 56.2617 35.7825 55.0922 35.8069C52.7583 35.8995 50.4699 36.4818 48.3757 37.5161Z" fill="white"/>
<path d="M56.127 46.9517C57.5759 46.8727 58.9969 46.5215 60.3158 45.9165C61.1102 45.1703 59.2806 41.8721 59.2806 41.8721C58.4789 41.8239 57.675 41.8239 56.8733 41.8721C53.8207 42.3017 50.8035 42.9534 47.8457 43.8221L39.2755 45.748C39.0022 46.4534 38.6466 47.124 38.2163 47.7462L47.1235 48.011L56.127 46.9517Z" fill="white"/>
<path d="M40.7925 31.7618C39.9499 32.2914 37.6389 34.1692 35.9778 35.4691C36.481 35.7879 36.9491 36.1591 37.374 36.5765C40.9358 33.9503 44.809 31.7751 48.9053 30.1007C51.3004 29.6833 53.7542 29.7405 56.1273 30.2692C56.1273 30.2692 57.5236 31.3284 54.8996 28.7285C52.2756 26.1285 50.5423 26.3211 50.5423 26.3211C49.5276 26.5089 48.5407 26.8243 47.6053 27.26C45.2595 28.6441 42.9857 30.1467 40.7925 31.7618Z" fill="white"/>
<path d="M53.4312 34.3611C56.0311 33.8315 56.3441 34.1204 56.3441 34.1204C56.1991 33.5488 55.9634 33.0043 55.6459 32.5074C55.6459 32.5074 55.4534 31.8574 53.696 31.4963C51.8122 31.2349 49.8936 31.4078 48.0869 32.0019C44.6859 33.6345 41.411 35.5174 38.2889 37.6351C38.2889 37.7796 38.5297 37.8759 38.6019 38.0444C38.8504 38.4742 39.0599 38.9253 39.2278 39.3925L45.7277 36.9851C48.2356 35.9436 50.8089 35.0671 53.4312 34.3611Z" fill="white"/>
<path d="M34.9661 29.4515C33.5375 30.8409 32.2176 32.3379 31.0181 33.9292C32.2453 33.9451 33.4568 34.207 34.5809 34.6996C36.5068 33.183 39.6845 30.7033 41.803 29.1867C44.131 27.5563 46.6342 26.1917 49.2658 25.1182C49.2658 25.1182 48.0862 23.2886 46.8584 23.0719C45.6307 22.8553 45.0048 23.4812 42.2122 24.7812C39.6415 26.0825 37.213 27.6477 34.9661 29.4515Z" fill="white"/>
<path d="M63.3494 46.6396L61.4476 47.2415C60.605 47.5063 54.2255 48.5656 52.0107 48.9507C48.5835 49.3475 45.1311 49.4843 41.6832 49.36H36.8685C36.4854 49.7203 36.0749 50.0503 35.6407 50.347C39.2758 51.3581 46.4498 53.3322 50.0849 53.8618C54.115 54.3153 58.194 54.0298 62.1216 53.0192C63.9512 52.5618 64.529 52.3933 64.7697 50.7803C64.6934 49.2943 64.2012 47.8596 63.3494 46.6396Z" fill="white"/>
<path d="M25.7948 35.421C26.7631 34.8471 27.821 34.4402 28.9243 34.2173C30.958 31.5228 33.2565 29.0388 35.7853 26.8025C38.2836 25.0382 40.9436 23.5147 43.7295 22.2526C43.7295 22.2526 41.3222 19.8452 36.6519 22.2526C33.6693 23.7902 31.0381 25.9296 28.9243 28.5358C28.9243 28.5358 22.0874 37.5876 21.7023 40.2117C21.7023 40.3561 21.7023 40.4524 21.7023 40.5968C22.4305 38.4522 23.8759 36.6242 25.7948 35.421Z" fill="white"/>
<path d="M49.0735 55.1607C49.0735 55.1607 36.1219 52.0551 35.1108 51.7181C34.6982 51.5688 34.296 51.3918 33.9071 51.1885C33.1989 51.5073 32.4555 51.7416 31.6924 51.8866C35.4923 54.069 39.5312 55.8058 43.7291 57.0625C47.5532 58.3548 51.6317 58.7099 55.6215 58.0977C56.5427 58.0458 57.426 57.7137 58.1532 57.1458C58.8803 56.5778 59.4165 55.8012 59.6899 54.9199C56.1667 55.336 52.6119 55.4166 49.0735 55.1607Z" fill="white"/>
<path d="M34.345 49.362C38.1459 47.0401 39.4909 42.3157 37.3492 38.8098C35.2075 35.3038 30.3901 34.344 26.5893 36.6659C22.7884 38.9878 21.4433 43.7122 23.585 47.2182C25.7267 50.7241 30.5441 51.6839 34.345 49.362Z" fill="white"/>
</svg>
