<svg width="158" height="37" viewBox="0 0 158 37" fill="none" xmlns="http://www.w3.org/2000/svg">
<path d="M61.1983 19.0318H59.3818C59.3477 19.0339 59.3136 19.0288 59.2816 19.0167C59.2497 19.0046 59.2207 18.9859 59.1965 18.9617C59.1724 18.9376 59.1536 18.9086 59.1416 18.8766C59.1295 18.8447 59.1243 18.8105 59.1265 18.7765V6.31658L54.0054 14.6402C53.9324 14.7642 53.8522 14.8955 53.699 14.8955H52.24C52.0868 14.8955 52.0065 14.7715 51.9336 14.6402L46.8271 6.31658V18.7765C46.8292 18.8105 46.8241 18.8447 46.812 18.8766C46.7999 18.9086 46.7812 18.9376 46.7571 18.9617C46.7329 18.9859 46.7039 19.0046 46.6719 19.0167C46.64 19.0288 46.6058 19.0339 46.5718 19.0318H44.7553C44.7212 19.0339 44.6871 19.0288 44.6551 19.0167C44.6232 19.0046 44.5942 18.9859 44.57 18.9617C44.5459 18.9376 44.5271 18.9086 44.5151 18.8766C44.503 18.8447 44.4978 18.8105 44.5 18.7765V1.90311C44.4978 1.86902 44.503 1.83487 44.5151 1.80292C44.5271 1.77098 44.5459 1.74197 44.57 1.71782C44.5942 1.69367 44.6232 1.67493 44.6551 1.66286C44.6871 1.65078 44.7212 1.64564 44.7553 1.64778H46.5645C46.7177 1.64778 46.7468 1.7718 46.8198 1.90311L52.9768 11.9337L59.1119 1.90311C59.1848 1.7718 59.214 1.64778 59.3672 1.64778H61.1837C61.2177 1.64564 61.2519 1.65078 61.2838 1.66286C61.3158 1.67493 61.3448 1.69367 61.369 1.71782C61.3931 1.74197 61.4118 1.77098 61.4239 1.80292C61.436 1.83487 61.4411 1.86902 61.439 1.90311V18.7765C61.441 18.8093 61.4362 18.8422 61.425 18.8731C61.4138 18.904 61.3964 18.9323 61.3739 18.9562C61.3513 18.9801 61.3241 18.9992 61.2939 19.0122C61.2637 19.0252 61.2311 19.0318 61.1983 19.0318V19.0318Z" fill="white"/>
<path d="M77.4453 19.0318H65.3428C65.3088 19.0339 65.2746 19.0288 65.2427 19.0167C65.2107 19.0046 65.1817 18.9859 65.1575 18.9617C65.1334 18.9376 65.1147 18.9086 65.1026 18.8766C65.0905 18.8447 65.0854 18.8105 65.0875 18.7765V1.90311C65.0854 1.86902 65.0905 1.83487 65.1026 1.80292C65.1147 1.77098 65.1334 1.74197 65.1575 1.71782C65.1817 1.69367 65.2107 1.67493 65.2427 1.66286C65.2746 1.65078 65.3088 1.64564 65.3428 1.64778H77.4453C77.4793 1.64564 77.5135 1.65078 77.5454 1.66286C77.5774 1.67493 77.6064 1.69367 77.6305 1.71782C77.6547 1.74197 77.6734 1.77098 77.6855 1.80292C77.6976 1.83487 77.7027 1.86902 77.7006 1.90311V3.53719C77.7027 3.57127 77.6976 3.60542 77.6855 3.63737C77.6734 3.66931 77.6547 3.69832 77.6305 3.72247C77.6064 3.74662 77.5774 3.76536 77.5454 3.77743C77.5135 3.78951 77.4793 3.79465 77.4453 3.79251H67.4876V9.23459H76.0957C76.1298 9.23245 76.1639 9.23759 76.1959 9.24967C76.2278 9.26174 76.2568 9.28048 76.281 9.30463C76.3051 9.32878 76.3238 9.35779 76.3359 9.38973C76.348 9.42168 76.3531 9.45583 76.351 9.48991V11.1313C76.3531 11.1654 76.348 11.1995 76.3359 11.2315C76.3238 11.2634 76.3051 11.2924 76.281 11.3166C76.2568 11.3407 76.2278 11.3595 76.1959 11.3715C76.1639 11.3836 76.1298 11.3888 76.0957 11.3866H67.4876V16.9016H77.4453C77.4793 16.8995 77.5135 16.9046 77.5454 16.9167C77.5774 16.9288 77.6064 16.9475 77.6305 16.9717C77.6547 16.9958 77.6734 17.0248 77.6855 17.0568C77.6976 17.0887 77.7027 17.1229 77.7006 17.157V18.791C77.7006 18.8239 77.694 18.8565 77.681 18.8867C77.668 18.9169 77.6489 18.9441 77.625 18.9666C77.6011 18.9892 77.5728 19.0066 77.5419 19.0178C77.511 19.029 77.4781 19.0338 77.4453 19.0318Z" fill="white"/>
<path d="M90.1322 12.3941L94.5092 18.7043C94.6113 18.8575 94.6113 19.0399 94.4071 19.0399H92.0799C91.9928 19.0358 91.9079 19.0104 91.8329 18.9659C91.7578 18.9214 91.6949 18.8591 91.6495 18.7845L87.2725 12.4525H83.749V18.7845C83.7512 18.8186 83.746 18.8528 83.734 18.8847C83.7219 18.9167 83.7032 18.9457 83.679 18.9698C83.6549 18.994 83.6258 19.0127 83.5939 19.0248C83.562 19.0368 83.5278 19.042 83.4937 19.0399H81.6043C81.5702 19.042 81.5361 19.0368 81.5041 19.0248C81.4722 19.0127 81.4432 18.994 81.419 18.9698C81.3949 18.9457 81.3761 18.9167 81.3641 18.8847C81.352 18.8528 81.3468 18.8186 81.349 18.7845V1.90388C81.3468 1.86979 81.352 1.83564 81.3641 1.8037C81.3761 1.77175 81.3949 1.74274 81.419 1.71859C81.4432 1.69444 81.4722 1.67571 81.5041 1.66363C81.5361 1.65155 81.5702 1.64642 81.6043 1.64855H89.4464C90.8384 1.61867 92.188 2.12847 93.2125 3.0712C94.237 4.01394 94.8571 5.3165 94.9429 6.70613C95.0287 8.09576 94.5735 9.46471 93.6727 10.5263C92.7719 11.5879 91.4954 12.2598 90.1103 12.4014L90.1322 12.3941ZM92.4593 7.05415C92.4158 6.16081 92.0257 5.31963 91.3718 4.70936C90.718 4.09909 89.8519 3.76784 88.9577 3.78599H83.7709V10.3004H88.965C89.8592 10.3186 90.7252 9.98733 91.3791 9.37706C92.033 8.76679 92.4231 7.92561 92.4666 7.03227L92.4593 7.05415Z" fill="white"/>
<path d="M115.285 19.0318H113.468C113.434 19.0339 113.4 19.0288 113.368 19.0167C113.336 19.0046 113.307 18.9859 113.283 18.9617C113.259 18.9376 113.24 18.9086 113.228 18.8766C113.216 18.8447 113.211 18.8105 113.213 18.7765V6.31659L108.106 14.6402C108.034 14.7642 107.953 14.8955 107.8 14.8955H106.341C106.188 14.8955 106.108 14.7715 106.035 14.6402L100.928 6.31659V18.7765C100.93 18.8105 100.925 18.8447 100.913 18.8766C100.901 18.9086 100.882 18.9376 100.858 18.9617C100.834 18.9859 100.805 19.0046 100.773 19.0167C100.741 19.0288 100.707 19.0339 100.673 19.0318H98.8564C98.8223 19.0339 98.7882 19.0288 98.7562 19.0167C98.7243 19.0046 98.6952 18.9859 98.6711 18.9617C98.6469 18.9376 98.6282 18.9086 98.6161 18.8766C98.6041 18.8447 98.5989 18.8105 98.6011 18.7765V1.90311C98.5989 1.86902 98.6041 1.83487 98.6161 1.80292C98.6282 1.77098 98.6469 1.74197 98.6711 1.71782C98.6952 1.69367 98.7243 1.67493 98.7562 1.66286C98.7882 1.65078 98.8223 1.64564 98.8564 1.64778H100.651C100.804 1.64778 100.833 1.7718 100.906 1.90311L107.063 11.941L113.22 1.90311C113.3 1.7718 113.322 1.64778 113.476 1.64778H115.292C115.326 1.64564 115.36 1.65078 115.392 1.66286C115.424 1.67493 115.453 1.69367 115.477 1.71782C115.501 1.74197 115.52 1.77098 115.532 1.80292C115.544 1.83487 115.549 1.86902 115.547 1.90311V18.7765C115.55 18.8112 115.544 18.846 115.532 18.8785C115.519 18.911 115.5 18.9404 115.475 18.9647C115.45 18.989 115.42 19.0075 115.387 19.0191C115.354 19.0307 115.319 19.035 115.285 19.0318Z" fill="white"/>
<path d="M132.582 19.2648H130.693C130.625 19.2648 130.56 19.2379 130.512 19.19C130.464 19.1421 130.438 19.0771 130.438 19.0094V13.3704H121.64V19.0167C121.642 19.0508 121.637 19.085 121.625 19.1169C121.613 19.1488 121.594 19.1779 121.57 19.202C121.546 19.2262 121.517 19.2449 121.485 19.257C121.453 19.269 121.418 19.2742 121.384 19.272H119.451C119.417 19.2742 119.383 19.269 119.351 19.257C119.319 19.2449 119.29 19.2262 119.266 19.202C119.242 19.1779 119.223 19.1488 119.211 19.1169C119.199 19.085 119.194 19.0508 119.196 19.0167V9.23412C119.196 5.58661 121.319 1.64731 126.017 1.64731C130.715 1.64731 132.808 5.57932 132.808 9.23412V19.0094C132.81 19.0411 132.806 19.0728 132.796 19.1027C132.785 19.1327 132.769 19.1603 132.748 19.184C132.727 19.2078 132.702 19.2271 132.673 19.241C132.645 19.2548 132.614 19.2629 132.582 19.2648V19.2648ZM130.394 9.17576C130.394 6.16292 128.782 3.96712 126.017 3.96712C123.252 3.96712 121.64 6.17021 121.64 9.17576V11.2184H130.394V9.17576Z" fill="white"/>
<path d="M138.602 19.0318H136.712C136.678 19.0339 136.644 19.0288 136.612 19.0167C136.58 19.0046 136.551 18.9859 136.527 18.9617C136.503 18.9376 136.484 18.9086 136.472 18.8766C136.46 18.8447 136.455 18.8105 136.457 18.7765V1.90311C136.455 1.86902 136.46 1.83487 136.472 1.80292C136.484 1.77098 136.503 1.74197 136.527 1.71782C136.551 1.69367 136.58 1.67493 136.612 1.66286C136.644 1.65078 136.678 1.64564 136.712 1.64778H138.602C138.636 1.64564 138.67 1.65078 138.702 1.66286C138.734 1.67493 138.763 1.69367 138.787 1.71782C138.811 1.74197 138.83 1.77098 138.842 1.80292C138.854 1.83487 138.859 1.86902 138.857 1.90311V18.7765C138.859 18.8105 138.854 18.8447 138.842 18.8766C138.83 18.9086 138.811 18.9376 138.787 18.9617C138.763 18.9859 138.734 19.0046 138.702 19.0167C138.67 19.0288 138.636 19.0339 138.602 19.0318V19.0318Z" fill="white"/>
<path d="M149.042 19.032H142.761C142.727 19.0341 142.692 19.029 142.66 19.0169C142.629 19.0049 142.6 18.9861 142.575 18.962C142.551 18.9378 142.533 18.9088 142.52 18.8769C142.508 18.8449 142.503 18.8108 142.505 18.7767V1.90333C142.503 1.86925 142.508 1.8351 142.52 1.80315C142.533 1.7712 142.551 1.74219 142.575 1.71804C142.6 1.69389 142.629 1.67516 142.66 1.66308C142.692 1.65101 142.727 1.64587 142.761 1.64801H149.042C151.379 1.61869 153.632 2.51509 155.311 4.14153C156.989 5.76797 157.956 7.99234 158 10.3291C157.993 11.4917 157.755 12.6415 157.3 13.7112C156.844 14.7809 156.18 15.7491 155.346 16.5592C154.512 17.3694 153.525 18.0054 152.443 18.4299C151.36 18.8545 150.204 19.0592 149.042 19.032V19.032ZM149.042 3.93864H144.905V16.7341H149.042C150.738 16.7341 152.366 16.06 153.566 14.8602C154.765 13.6604 155.439 12.0331 155.439 10.3364C155.439 8.63958 154.765 7.01229 153.566 5.81249C152.366 4.61268 150.738 3.93864 149.042 3.93864V3.93864Z" fill="white"/>
<path fill-rule="evenodd" clip-rule="evenodd" d="M108 22H44V36H108V22ZM47.0084 33H51.623V31.597H48.7074V29.5308H51.4202V28.1388H48.7074V26.3796H51.623V24.9875H47.0084V33ZM59.4092 33H61.3493L58.642 28.9609L61.1575 24.9875H59.327L57.6335 27.8703L55.9072 24.9875H54.0329L56.521 28.8677L53.863 33H55.6825L57.5459 29.9693L59.4092 33ZM68.7519 25.6561C68.277 25.2104 67.5225 24.9875 66.4885 24.9875H63.9291V33H65.628V30.1501H66.357C66.9415 30.1501 67.433 30.0789 67.8312 29.9364C68.2295 29.7903 68.5473 29.593 68.7848 29.3445C69.026 29.0961 69.1995 28.8129 69.3055 28.495C69.4114 28.1735 69.4644 27.8374 69.4644 27.4866C69.4644 26.7084 69.2269 26.0982 68.7519 25.6561ZM65.628 26.3796H66.4008C66.8612 26.3796 67.2009 26.4764 67.4202 26.67C67.6394 26.86 67.749 27.1523 67.749 27.5469C67.749 27.8282 67.6851 28.0584 67.5572 28.2375C67.4293 28.4165 67.2484 28.548 67.0146 28.632C66.7808 28.7161 66.5049 28.7581 66.1871 28.7581H65.628V26.3796ZM72.5484 24.9875V33H77.4973V31.597H74.2473V24.9875H72.5484ZM87.5086 30.6708C87.662 30.1629 87.7388 29.6003 87.7388 28.9828C87.7388 28.1498 87.6017 27.4245 87.3277 26.807C87.0573 26.1896 86.6408 25.7109 86.0782 25.3712C85.5192 25.0314 84.8049 24.8615 83.9353 24.8615C83.0621 24.8615 82.3423 25.0314 81.776 25.3712C81.2097 25.7109 80.7895 26.1896 80.5155 26.807C80.2451 27.4209 80.1099 28.1425 80.1099 28.9718C80.1099 29.593 80.1866 30.1575 80.3401 30.6653C80.4935 31.1732 80.7256 31.6098 81.0361 31.9751C81.3503 32.3405 81.7467 32.6218 82.2254 32.8191C82.704 33.0128 83.2703 33.1096 83.9243 33.1096C84.5783 33.1096 85.1447 33.0128 85.6233 32.8191C86.1019 32.6218 86.4965 32.3405 86.8071 31.9751C87.1213 31.6098 87.3551 31.175 87.5086 30.6708ZM82.0993 30.4297C81.9605 30.0241 81.8911 29.5418 81.8911 28.9828C81.8911 28.4201 81.9605 27.9379 82.0993 27.536C82.2418 27.1304 82.4629 26.8198 82.7625 26.6043C83.0657 26.385 83.4567 26.2754 83.9353 26.2754C84.6551 26.2754 85.1721 26.5166 85.4863 26.9989C85.8005 27.4811 85.9576 28.1425 85.9576 28.9828C85.9576 29.5418 85.8882 30.0241 85.7493 30.4297C85.6142 30.8316 85.3968 31.1421 85.0972 31.3613C84.7976 31.5769 84.4066 31.6847 83.9243 31.6847C83.4494 31.6847 83.0621 31.5769 82.7625 31.3613C82.4629 31.1421 82.2418 30.8316 82.0993 30.4297ZM95.103 25.2506C94.6317 25.0752 94.0325 24.9875 93.3054 24.9875H90.9707V33H92.6697V29.9254H93.5739L95.4866 33H97.3719L95.0153 29.5089C95.2784 29.3884 95.5232 29.2331 95.7497 29.0431C95.9762 28.8531 96.1589 28.6211 96.2977 28.3471C96.4366 28.073 96.506 27.7533 96.506 27.388C96.506 26.8472 96.3909 26.3997 96.1607 26.0453C95.9306 25.6909 95.578 25.426 95.103 25.2506ZM92.6697 26.3796H93.1848C93.7329 26.3796 94.1366 26.4599 94.396 26.6207C94.6591 26.7815 94.7906 27.0518 94.7906 27.4318C94.7906 27.7972 94.6682 28.0749 94.4234 28.2649C94.1823 28.4512 93.7804 28.5444 93.2177 28.5444H92.6697V26.3796ZM99.9517 33H104.566V31.597H101.651V29.5308H104.363V28.1388H101.651V26.3796H104.566V24.9875H99.9517V33Z" fill="white"/>
<path d="M22.8442 24.781C22.8442 24.781 23.012 24.1099 21.0861 23.1323C19.9408 22.5487 18.8247 22.6801 17.6721 22.3299C16.5195 21.9797 13.616 20.7615 13.616 20.7615C13.0637 20.042 12.4564 19.3664 11.7996 18.7408C11.2038 18.2087 10.5476 17.7484 9.84452 17.3693C9.57993 17.6017 9.35129 17.8722 9.16609 18.1717C8.92685 18.5362 8.7379 18.9312 8.60437 19.3462C8.60437 19.3462 11.0774 22.4758 13.7109 23.3074C14.9097 23.7638 16.178 24.0106 17.4605 24.0369C17.7012 24.0369 19.3426 24.1391 20.3347 24.1609C21.2049 24.1937 22.059 24.4048 22.8442 24.781V24.781Z" fill="white"/>
<path d="M25.6017 29.1726C25.6432 28.5054 25.484 27.8411 25.1447 27.2652C24.8054 26.6892 24.3014 26.228 23.6977 25.9409C24.4272 28.5088 22.1585 30.3179 22.1585 30.3179C21.0212 30.9568 19.7902 31.4123 18.511 31.6675C15.8045 32.3824 12.6312 29.5666 12.6312 29.5666C11.8303 28.9283 11.097 28.2096 10.4427 27.4218C9.12961 25.9045 8.67732 25.175 8.29798 23.8619C7.98648 22.5487 7.88065 21.1952 7.98429 19.8496C8.0074 19.2935 8.14917 18.7488 8.40011 18.252C8.83119 17.6983 9.19599 17.096 9.48706 16.4574C9.5746 16.0051 9.07125 16.1 9.07125 16.1C9.07125 16.1 7.2402 17.1723 6.43045 15.7206C5.89792 14.765 6.11677 13.8969 5.36538 13.6416C5.36538 13.6416 4.63588 16.6325 2.48386 17.2015C0.900838 17.6173 0.776823 15.8592 0.776823 15.8592C0.456084 17.0089 0.212376 18.1787 0.0473225 19.3608C-0.104092 21.3282 0.108588 23.3066 0.674693 25.1968C1.40419 27.8449 3.1477 30.1793 5.0517 32.0615C6.97783 34.1111 9.49886 35.5043 12.2592 36.0445C14.8051 36.5844 18.8247 35.9643 20.8454 34.6585C21.7253 34.0588 22.5015 33.3196 23.1433 32.47V32.47C25.1276 31.3392 28.6073 32.3095 28.6073 32.3095C28.6802 30.4347 25.6017 29.1726 25.6017 29.1726Z" fill="white"/>
<path d="M11.6318 4.25286C13.047 2.62608 12.6385 2.06436 12.6385 2.06436C12.0469 2.70714 11.3292 3.22118 10.5302 3.57443C9.61105 3.96836 8.13746 4.69786 7.91131 4.77081C6.73404 5.28028 5.65321 5.9885 4.7161 6.86448C2.60054 8.62257 1.47711 12.4525 1.47711 12.4525L1.3458 12.9558C1.24161 13.5455 1.20976 14.1457 1.25097 14.7431C1.34184 15.3584 1.63131 15.9271 2.0753 16.3626C2.25039 16.6106 3.403 15.8884 4.11791 14.8014C4.83282 13.7145 4.60667 13.0798 4.60667 13.0798L4.30758 12.54C4.45244 12.3044 4.58395 12.0608 4.70151 11.8105C5.07579 10.9846 5.38554 10.131 5.62797 9.25724C5.62797 9.25724 7.86025 7.06874 8.8013 6.28088C9.74236 5.49302 10.7855 5.2231 11.6318 4.25286Z" fill="white"/>
<path d="M32.9333 14.2689L28.6948 6.93015L24.4637 14.2689H32.9333Z" fill="white"/>
<path d="M24.5043 8.01901C25.9489 6.47954 25.8721 4.06044 24.3326 2.61579C22.7931 1.17114 20.374 1.24801 18.9294 2.78748C17.4847 4.32695 17.5616 6.74605 19.1011 8.1907C20.6405 9.63535 23.0596 9.55848 24.5043 8.01901Z" fill="white"/>
<path d="M29.1205 25.4765L33.885 20.7912L29.1997 16.0268L24.4352 20.7121L29.1205 25.4765Z" fill="white"/>
<path d="M14.6592 11.2415L12.0111 12.2482C12.082 12.5972 12.082 12.9569 12.0111 13.306C12.9668 13.0579 14.7103 12.5765 15.6586 12.3066C16.5918 12.0534 17.5623 11.9669 18.5256 12.0512C18.4275 11.5733 18.1443 11.1537 17.7377 10.884C17.4019 10.7704 17.0489 10.7161 16.6945 10.7235C15.9873 10.7516 15.2938 10.9281 14.6592 11.2415V11.2415Z" fill="white"/>
<path d="M17.0082 14.1011C17.4472 14.0772 17.8778 13.9708 18.2775 13.7874C18.5182 13.5613 17.9638 12.5619 17.9638 12.5619C17.7209 12.5472 17.4773 12.5472 17.2343 12.5619C16.3093 12.692 15.395 12.8895 14.4987 13.1528L11.9017 13.7364C11.8188 13.9501 11.7111 14.1533 11.5807 14.3419L14.2798 14.4221L17.0082 14.1011Z" fill="white"/>
<path d="M12.3612 9.49797C12.1059 9.65846 11.4056 10.2275 10.9022 10.6214C11.0547 10.718 11.1966 10.8305 11.3253 10.957C12.4046 10.1611 13.5783 9.50201 14.8196 8.99462C15.5454 8.86814 16.289 8.88549 17.0081 9.04568C17.0081 9.04568 17.4313 9.36666 16.6361 8.5788C15.8409 7.79094 15.3157 7.8493 15.3157 7.8493C15.0082 7.90621 14.7092 8.0018 14.4257 8.1338C13.7149 8.55324 13.0258 9.00855 12.3612 9.49797V9.49797Z" fill="white"/>
<path d="M16.1911 10.2858C16.979 10.1254 17.0738 10.2129 17.0738 10.2129C17.0299 10.0397 16.9584 9.87469 16.8622 9.72413C16.8622 9.72413 16.8039 9.52716 16.2713 9.41774C15.7005 9.33852 15.1191 9.39092 14.5716 9.57093C13.541 10.0657 12.5486 10.6362 11.6025 11.278C11.6025 11.3217 11.6755 11.3509 11.6974 11.402C11.7727 11.5322 11.8362 11.6689 11.887 11.8105L13.8567 11.081C14.6167 10.7654 15.3965 10.4998 16.1911 10.2858V10.2858Z" fill="white"/>
<path d="M10.5959 8.79765C10.163 9.21867 9.76303 9.67229 9.39954 10.1545C9.77142 10.1593 10.1386 10.2387 10.4792 10.388C11.0628 9.92838 12.0257 9.17699 12.6677 8.7174C13.3732 8.22336 14.1317 7.80983 14.9292 7.48455C14.9292 7.48455 14.5717 6.93013 14.1997 6.86447C13.8276 6.79882 13.6379 6.98849 12.7917 7.38242C12.0127 7.77675 11.2768 8.25105 10.5959 8.79765V8.79765Z" fill="white"/>
<path d="M19.1967 14.0063L18.6204 14.1887C18.3651 14.2689 16.4319 14.5899 15.7608 14.7066C14.7222 14.8268 13.676 14.8683 12.6312 14.8306H11.1722C11.0561 14.9398 10.9317 15.0398 10.8002 15.1297C11.9017 15.4361 14.0756 16.0343 15.1772 16.1948C16.3984 16.3322 17.6345 16.2457 18.8247 15.9395C19.3791 15.8009 19.5542 15.7498 19.6271 15.261C19.604 14.8107 19.4549 14.376 19.1967 14.0063Z" fill="white"/>
<path d="M7.81645 10.6068C8.10988 10.4329 8.43047 10.3096 8.7648 10.2421C9.38107 9.42557 10.0776 8.67286 10.8439 7.9952C11.6009 7.46057 12.407 6.99891 13.2512 6.61644C13.2512 6.61644 12.5217 5.88694 11.1065 6.61644C10.2027 7.08237 9.40532 7.73069 8.7648 8.52044C8.7648 8.52044 6.69301 11.2634 6.57629 12.0585C6.57629 12.1023 6.57629 12.1315 6.57629 12.1752C6.79698 11.5254 7.23497 10.9714 7.81645 10.6068V10.6068Z" fill="white"/>
<path d="M14.8708 16.5887C14.8708 16.5887 10.946 15.6477 10.6397 15.5455C10.5146 15.5003 10.3927 15.4467 10.2749 15.385C10.0603 15.4817 9.835 15.5527 9.60376 15.5966C10.7552 16.2579 11.9792 16.7842 13.2513 17.165C14.4101 17.5566 15.646 17.6642 16.855 17.4787C17.1342 17.463 17.4018 17.3624 17.6222 17.1903C17.8425 17.0181 18.005 16.7828 18.0879 16.5158C17.0202 16.6419 15.943 16.6663 14.8708 16.5887V16.5887Z" fill="white"/>
<path d="M10.4076 14.8314C11.5594 14.1278 11.967 12.6961 11.318 11.6337C10.669 10.5714 9.20919 10.2805 8.05741 10.9841C6.90563 11.6877 6.49804 13.1193 7.14703 14.1817C7.79603 15.2441 9.25585 15.535 10.4076 14.8314Z" fill="white"/>
</svg>
