<svg width="20" height="21" viewBox="0 0 20 21" fill="none" xmlns="http://www.w3.org/2000/svg">
<path d="M11.2976 15.4047L8.01188 14.2548L5.46545 15.2405C5.28291 15.3135 5.11406 15.293 4.9589 15.1791C4.80375 15.0652 4.72617 14.9123 4.72617 14.7202V7.05356C4.72617 6.93491 4.76048 6.82995 4.82912 6.73868C4.89775 6.64741 4.99121 6.57896 5.1095 6.53332L8.01188 5.54761L11.2976 6.69761L13.844 5.71189C14.0266 5.63888 14.1954 5.6595 14.3506 5.77377C14.5057 5.88804 14.5833 6.04083 14.5833 6.23213V13.8988C14.5833 14.0174 14.5492 14.1224 14.4809 14.2137C14.4126 14.3049 14.319 14.3734 14.2 14.419L11.2976 15.4047ZM10.75 14.0631V7.65594L8.5595 6.88927V13.2964L10.75 14.0631Z" fill="#1C124A"/>
<path d="M0 0.5H7.14286V3.35714H2.85714V7.64286H0V0.5ZM12.8571 0.5H20V7.64286H17.1429V3.35714H12.8571V0.5ZM17.1429 13.3571H20V20.5H12.8571V17.6429H17.1429V13.3571ZM7.14286 17.6429V20.5H0V13.3571H2.85714V17.6429H7.14286Z" fill="#1C124A"/>
</svg>
