<svg width="21" height="20" viewBox="0 0 21 20" fill="none" xmlns="http://www.w3.org/2000/svg">
<path d="M12.4323 10.6241V16.6427C12.4629 16.8718 12.3865 17.1162 12.2108 17.2766C12.1402 17.3474 12.0562 17.4036 11.9639 17.4419C11.8715 17.4803 11.7724 17.5 11.6724 17.5C11.5723 17.5 11.4733 17.4803 11.3809 17.4419C11.2885 17.4036 11.2046 17.3474 11.1339 17.2766L9.59869 15.7414C9.51544 15.66 9.45213 15.5604 9.41371 15.4504C9.37529 15.3404 9.36279 15.2231 9.3772 15.1075V10.6241H9.35428L4.95488 4.98733C4.83085 4.82811 4.77488 4.62626 4.79921 4.4259C4.82354 4.22553 4.92619 4.04295 5.08472 3.91803C5.22984 3.8111 5.39024 3.75 5.55827 3.75H16.2513C16.4193 3.75 16.5797 3.8111 16.7248 3.91803C16.8833 4.04295 16.986 4.22553 17.0103 4.4259C17.0347 4.62626 16.9787 4.82811 16.8547 4.98733L12.4553 10.6241H12.4323Z" fill="#1C124A"/>
<path d="M0.904785 0H8.04764V2.85714H3.76193V7.14286H0.904785V0ZM13.7619 0H20.9048V7.14286H18.0476V2.85714H13.7619V0ZM18.0476 12.8571H20.9048V20H13.7619V17.1429H18.0476V12.8571ZM8.04764 17.1429V20H0.904785V12.8571H3.76193V17.1429H8.04764Z" fill="#1C124A"/>
</svg>
